<?xml version="1.0" encoding="UTF-8"?>
<svg version="1.2" baseProfile="tiny-ps" xmlns="http://www.w3.org/2000/svg" viewBox="0 0 512 512" width="512" height="512">
  <title>TasteLanc</title>
  <rect width="512" height="512" fill="#121212"/>
  <path d="M256 56c-82.8 0-150 67.2-150 150 0 33.6 11.1 64.7 29.8 89.7L256 456l120.2-160.3c18.7-25 29.8-56.1 29.8-89.7 0-82.8-67.2-150-150-150z" fill="#A41E22"/>
  <circle cx="256" cy="206" r="100" fill="#FFFFFF"/>
  <text x="256" y="185" text-anchor="middle" font-family="Georgia, serif" font-size="42" font-weight="bold" fill="#C4A962">Taste</text>
  <text x="256" y="235" text-anchor="middle" font-family="Georgia, serif" font-size="42" font-weight="bold" fill="#C4A962">Lanc</text>
  <rect x="248" y="280" width="16" height="80" rx="3" fill="#4A7C4E"/>
  <rect x="232" y="260" width="8" height="35" rx="2" fill="#4A7C4E"/>
  <rect x="244" y="260" width="8" height="35" rx="2" fill="#4A7C4E"/>
  <rect x="256" y="260" width="8" height="35" rx="2" fill="#4A7C4E"/>
  <rect x="268" y="260" width="8" height="35" rx="2" fill="#4A7C4E"/>
  <circle cx="236" cy="260" r="4" fill="#4A7C4E"/>
  <circle cx="248" cy="260" r="4" fill="#4A7C4E"/>
  <circle cx="260" cy="260" r="4" fill="#4A7C4E"/>
  <circle cx="272" cy="260" r="4" fill="#4A7C4E"/>
</svg>
